<svg width="30" height="30" viewBox="0 0 30 30" fill="none" xmlns="http://www.w3.org/2000/svg">
<path d="M23.75 13.5016H8.925L13.4625 8.05157C13.6747 7.79629 13.7768 7.46719 13.7463 7.13666C13.7158 6.80613 13.5553 6.50124 13.3 6.28907C13.0447 6.07689 12.7156 5.97481 12.3851 6.00529C12.0546 6.03576 11.7497 6.19629 11.5375 6.45157L5.2875 13.9516C5.24545 14.0112 5.20785 14.0739 5.175 14.1391C5.175 14.2016 5.175 14.2391 5.0875 14.3016C5.03084 14.4449 5.00118 14.5975 5 14.7516C5.00118 14.9057 5.03084 15.0582 5.0875 15.2016C5.0875 15.2641 5.0875 15.3016 5.175 15.3641C5.20785 15.4292 5.24545 15.4919 5.2875 15.5516L11.5375 23.0516C11.655 23.1927 11.8022 23.3061 11.9686 23.3839C12.1349 23.4617 12.3164 23.5019 12.5 23.5016C12.7921 23.5021 13.0751 23.4004 13.3 23.2141C13.4266 23.1091 13.5312 22.9803 13.6079 22.8348C13.6846 22.6894 13.7318 22.5303 13.7469 22.3665C13.762 22.2028 13.7447 22.0377 13.6959 21.8807C13.6471 21.7237 13.5678 21.5779 13.4625 21.4516L8.925 16.0016H23.75C24.0815 16.0016 24.3995 15.8699 24.6339 15.6354C24.8683 15.401 25 15.0831 25 14.7516C25 14.42 24.8683 14.1021 24.6339 13.8677C24.3995 13.6333 24.0815 13.5016 23.75 13.5016Z" fill="#F53838"/>
</svg>
